<svg xmlns="http://www.w3.org/2000/svg" className="w-5 h-5" fill="white" viewBox="0 0 24 24" >
    <path d="M19.633 7.997c.013.176.013.353.013.53 0 5.383-4.094 11.588-11.588 11.588-2.302 0-4.437-.676-6.238-1.842.318.038.636.051.964.051 1.901 0 3.647-.63 5.042-1.695-1.776-.038-3.267-1.208-3.785-2.826.248.038.51.063.772.063.374 0 .736-.05 1.082-.138-1.861-.376-3.26-2.015-3.26-3.987v-.05c.547.303 1.174.487 1.84.51-1.088-.727-1.801-1.971-1.801-3.379 0-.743.2-1.44.547-2.038 1.986 2.435 4.957 4.038 8.305 4.208-.063-.298-.088-.609-.088-.923 0-2.244 1.813-4.063 4.063-4.063 1.17 0 2.23.493 2.973 1.28a8.086 8.086 0 002.582-.985c-.328 1.024-1.024 1.887-1.93 2.43.916-.1 1.79-.353 2.6-.712-.624.91-1.406 1.71-2.31 2.349z" />
</svg>